{"title":"Bob.The.Builder.White.Christmas[2007]-Bearmeister.avi","uid":4022053,"size":733335552,"categoryP":"video","categoryS":"tv_shows","magnet":"?xt=urn:btih:19deb22b30d04584b182eb216fc5a51fe4693baa&amp;dn=Bob.The.Builder.White.Christmas%5B2007%5D-Bearmeister.avi&amp;tr=udp%3A%2F%2Ftracker.openbittorrent.com%3A80&amp;tr=udp%3A%2F%2Fopen.demonii.com%3A1337&amp;tr=udp%3A%2F%2Ftracker.coppersurfer.tk%3A6969&amp;tr=udp%3A%2F%2Fexodus.desync.com%3A6969","seeders":0,"leechers":1,"uploader":"bearmeister","files":1,"time":1202711293,"description":"\nAll Bearmeister torrents located here &lt;a href=&quot;\nhttp://thepiratebay.se/user/bearmeister/&quot; rel=&quot;nofollow&quot; target=&quot;_NEW&quot;&gt;\nhttp://thepiratebay.se/user/bearmeister/&lt;/a&gt;\n\n  Duration: 00:54:50.5, bitrate: 1782 kb/s\n  Stream #0.0: Video: mpeg4, 512x384, 29.97 fps\n  Stream #0.1: Audio: mp3, 48000 Hz, stereo, 118 kb/s\n\n&quot;Santa Bob&quot; is dreaming of a white Christmas, but along with the snow and ice comes an avalanche of problems! In his first-ever ho-ho-ho holiday show, Bob celebrates by trimming the tree, delivering Christmas presents, and enjoying a snowball fight. But when &quot;Big Freeze&quot; hits, Bob and Scoop must snowplow a path to a snowbound Farmer Pickles. Then, Spud is one scared scarecrow when he discovers a mysterious &quot;Snow Monster&quot;. (Don&amp;#039;t worry - it&amp;#039;s only a snow-covered Dizzy!) Finally, Bob and his friends demonstrate the true spirit of the season when they rescue some hungry ducks and homeless hedgehogs. Along the way, Bob and his crew learn that sometimes the best gift is a helping hand from a friend!","torrent":{"xt":"urn:btih:19deb22b30d04584b182eb216fc5a51fe4693baa","amp;dn":"Bob.The.Builder.White.Christmas%5B2007%5D-Bearmeister.avi","amp;tr":["udp%3A%2F%2Ftracker.openbittorrent.com%3A80","udp%3A%2F%2Fopen.demonii.com%3A1337","udp%3A%2F%2Ftracker.coppersurfer.tk%3A6969","udp%3A%2F%2Fexodus.desync.com%3A6969"],"infoHash":"19deb22b30d04584b182eb216fc5a51fe4693baa","infoHashBuffer":{"type":"Buffer","data":[25,222,178,43,48,208,69,132,177,130,235,33,111,197,165,31,228,105,59,170]},"announce":[],"urlList":[]}}